<svg width="1440" height="1006" viewBox="0 0 1440 1006" fill="none" xmlns="http://www.w3.org/2000/svg">
<path d="M172.903 1005.77C172.903 1005.19 172.903 1004.61 174.018 972.289C175.133 939.965 177.364 875.914 183.392 830.528C189.421 785.142 199.18 760.36 216.649 727.781C234.118 695.201 259.001 655.574 277.782 628.568C296.564 601.561 308.491 588.376 322.653 575.307C336.816 562.238 352.853 549.685 366.787 540.247C391.289 523.651 412.7 515.916 430.716 510.929C448.417 506.03 474.291 505.897 502.068 506.698C519.669 507.206 532.505 515.737 545.635 525.904C558.195 535.629 568.643 549.231 578.369 565.348C596.874 596.016 595.912 630.285 587.8 652.496C584.556 661.377 563.963 665.553 538.118 674.088C524.706 678.517 510.2 681.578 482.689 683.625C455.178 685.672 414.976 686.211 387.572 685.093C360.168 683.976 346.779 681.185 332.15 675.545C301.164 663.6 279.063 646.725 265.646 634.283C240.862 611.299 238.357 581.574 238.298 555.931C238.249 534.858 269.361 517.223 298.367 502.607C306.039 498.741 315.368 497.281 339.393 495.58C363.418 493.88 402.257 492.903 428.679 494.631C455.101 496.358 467.929 500.819 481.86 507.388C495.791 513.958 510.436 522.502 531.854 539.809C553.271 557.115 581.017 582.926 599.78 602.916C618.544 622.905 627.484 636.291 637.912 654.93C648.339 673.569 659.983 697.055 665.239 715.544C670.494 734.033 669.008 746.812 659.701 757.159C650.394 767.506 633.311 775.033 617.606 780.923C601.901 786.813 588.092 790.838 563.381 794.778C538.67 798.717 503.474 802.447 456.215 804.369C408.956 806.291 350.7 806.291 314.937 805.506C279.174 804.721 267.67 803.15 241.311 796.233C214.951 789.315 174.085 777.098 130.375 760.359C86.6656 743.621 41.3509 722.729 10.7291 706.925C-35.5415 683.043 -50.5202 668.79 -50.6838 665.82C-50.9097 661.723 -40.678 664.046 -23.905 666.275C-10.2148 668.094 13.7447 672.962 87.3325 676.888C160.92 680.815 283.348 684.074 390.702 675.354C498.056 666.633 586.627 645.834 690.892 605.353C795.158 564.872 912.434 505.34 1019.31 444.539C1126.19 383.738 1219.12 323.471 1279.36 287.508C1339.61 251.544 1364.36 241.71 1380.82 235.989C1404.31 227.819 1426.09 227.609 1448.31 228.055C1468.35 228.457 1491.73 252.918 1504.13 265.291C1512.14 273.277 1519.1 281.726 1522.05 291.423C1524.96 301.034 1511.98 309.976 1503.82 314.825C1500.97 316.516 1496.08 317.045 1456.51 318.499C1416.94 319.954 1342.57 321.71 1225.35 302.479C1108.12 283.248 950.284 242.976 826.753 202.387C703.222 161.797 618.776 122.11 556.825 91.3061C494.874 60.5026 457.978 39.7855 433.449 26.9396C398.451 8.6103 376.02 3.93689 353.09 1.91967C326.639 -0.407343 305.541 2.15925 292.776 4.33704C286.459 5.41478 280.598 7.14065 257.638 16.6577C234.679 26.1747 194.832 43.6105 151.767 64.657C108.703 85.7035 63.627 109.832 33.5731 125.262C-25.5902 155.637 -36.1106 162.183 -43.7399 169.641C-49.9902 175.751 -60.926 186.91 -67.9597 195.676C-72.9495 201.767 -99.9587 243.106 -116.982 271.538C-118.209 274.104 -119.091 275.824 -120 278.563" stroke="black" stroke-width="2" stroke-linecap="round"/>
</svg>
